<?xml version="1.0" encoding="utf-8"?>
<!-- Generator: Adobe Illustrator 23.0.2, SVG Export Plug-In . SVG Version: 6.00 Build 0)  -->
<svg version="1.1" id="Layer_1" xmlns="http://www.w3.org/2000/svg" xmlns:xlink="http://www.w3.org/1999/xlink" x="0px" y="0px"
	 viewBox="0 0 1166 1614" style="enable-background:new 0 0 1166 1614;" xml:space="preserve">
<style type="text/css">
	.st0{fill:#FFFFFF;}
</style>
<path class="st0" d="M51.77,1408.06c-6.04-8.38-11.39-22.76-9.38-42.96c2.79-28,15.97-54.81,15.97-54.81l18.27-56.13l48.56-147.97
	l43.29-130.69l43.45-131.35l46.75-140.07l27.98-84.77l28.97-87.89l35.55-108.8l41.31-126.25l32.92-98.43l28.31-83.78
	c0,0,7.82-30.32,15.76-42.93c2.9-4.61,24.32-43.1,79.37-36.19c61.08,7.66,61.75,4.09,60.33,25.5c-0.94,14.13,2.18,28.62,25.06,35.12
	c15.36,4.36,83.98,12.41,83.98,12.41l100.9,14.16l96.95,13.17c0,0,38.52,3.13,48.88-10.86c10.37-13.99,14.98-23.21,19.42-26.34
	c4.44-3.13,14.98-2.8,30.12-0.66c15.14,2.14,51.85,6.91,51.85,6.91s29.46,6.09,35.88,30.78c6.42,24.69,0.99,38.35-3.95,54.81
	c-4.94,16.46-45.76,147.48-45.76,147.48L1001,504.1l-47.57,153.24L908,803.01l-55.8,177.6l-46.75,148.47l-42.79,135.13l-40.98,129.7
	l-18.43,59.75c0,0-10.04,40.66-19.59,53.16s-21.89,28.48-41.31,34.4c-19.42,5.93-32.43,4.61-55.8-0.49
	c-23.37-5.1-190.44-40.98-190.44-40.98l-193.07-42.47l-117.36-25.51C85.68,1431.76,65.17,1426.67,51.77,1408.06z"/>
</svg>