<svg width="22" height="23" viewBox="0 0 22 23" fill="none" xmlns="http://www.w3.org/2000/svg">
<path d="M10.9956 2.31905C13.9333 2.31905 14.2782 2.33215 15.4393 2.38454C16.5131 2.43257 17.0937 2.61157 17.4821 2.76438C17.9972 2.96521 18.3639 3.20097 18.748 3.58518C19.1321 3.96938 19.3722 4.33612 19.5687 4.8513C19.7171 5.23987 19.9004 5.82054 19.9484 6.89456C20.0008 8.05591 20.0139 8.40082 20.0139 11.3391C20.0139 14.2774 20.0008 14.6223 19.9484 15.7836C19.9004 16.8577 19.7214 17.4383 19.5687 17.8269C19.3679 18.3421 19.1321 18.7088 18.748 19.093C18.3639 19.4772 17.9972 19.7173 17.4821 19.9138C17.0937 20.0623 16.5131 20.2456 15.4393 20.2937C14.2782 20.346 13.9333 20.3591 10.9956 20.3591C8.05794 20.3591 7.7131 20.346 6.55198 20.2937C5.47818 20.2456 4.89762 20.0666 4.50913 19.9138C3.99405 19.713 3.62738 19.4772 3.24325 19.093C2.85913 18.7088 2.61905 18.3421 2.42262 17.8269C2.27421 17.4383 2.09087 16.8577 2.04286 15.7836C1.99048 14.6223 1.97738 14.2774 1.97738 11.3391C1.97738 8.40082 1.99048 8.05591 2.04286 6.89456C2.09087 5.82054 2.26984 5.23987 2.42262 4.8513C2.62341 4.33612 2.85913 3.96938 3.24325 3.58518C3.62738 3.20097 3.99405 2.96085 4.50913 2.76438C4.89762 2.61594 5.47818 2.43257 6.55198 2.38454C7.7131 2.32779 8.0623 2.31905 10.9956 2.31905ZM10.9956 0.336914C8.00992 0.336914 7.63452 0.350012 6.46032 0.402403C5.29048 0.454795 4.49167 0.64253 3.79325 0.913219C3.06865 1.19264 2.45754 1.57248 1.84643 2.18371C1.23532 2.79494 0.859921 3.41054 0.57619 4.13092C0.305556 4.82947 0.117857 5.62844 0.0654762 6.80288C0.0130952 7.97295 0 8.34842 0 11.3347C0 14.321 0.0130952 14.6965 0.0654762 15.8709C0.117857 17.041 0.305556 17.84 0.57619 18.5429C0.855556 19.2677 1.23532 19.8789 1.84643 20.4901C2.45754 21.1014 3.07302 21.4768 3.79325 21.7606C4.49167 22.0313 5.29048 22.219 6.46468 22.2714C7.63889 22.3238 8.00992 22.3369 11 22.3369C13.9901 22.3369 14.3611 22.3238 15.5353 22.2714C16.7052 22.219 17.504 22.0313 18.2067 21.7606C18.9314 21.4812 19.5425 21.1014 20.1536 20.4901C20.7647 19.8789 21.1401 19.2633 21.4238 18.5429C21.6944 17.8444 21.8821 17.0454 21.9345 15.8709C21.9869 14.6965 22 14.3254 22 11.3347C22 8.34406 21.9869 7.97295 21.9345 6.79851C21.8821 5.62844 21.6944 4.82947 21.4238 4.12655C21.1444 3.40181 20.7647 2.79058 20.1536 2.17934C19.5425 1.56811 18.927 1.19264 18.2067 0.908853C17.5083 0.638164 16.7095 0.450429 15.5353 0.398037C14.3567 0.350012 13.9813 0.336914 10.9956 0.336914Z" fill="#5AE800"/>
<path d="M10.996 5.69275C7.87928 5.69275 5.34753 8.22063 5.34753 11.3423C5.34753 14.4639 7.87492 16.9918 10.996 16.9918C14.117 16.9918 16.6444 14.4639 16.6444 11.3423C16.6444 8.22063 14.117 5.69275 10.996 5.69275ZM10.996 15.0053C8.97056 15.0053 7.32928 13.3637 7.32928 11.3379C7.32928 9.31212 8.97056 7.67052 10.996 7.67052C13.0214 7.67052 14.6626 9.31212 14.6626 11.3379C14.6626 13.3637 13.0214 15.0053 10.996 15.0053Z" fill="#5AE800"/>
<path d="M16.8677 6.78265C17.5958 6.78265 18.186 6.19233 18.186 5.46414C18.186 4.73595 17.5958 4.14563 16.8677 4.14563C16.1396 4.14563 15.5494 4.73595 15.5494 5.46414C15.5494 6.19233 16.1396 6.78265 16.8677 6.78265Z" fill="#5AE800"/>
</svg>
