<svg width="195" height="75" viewBox="0 0 195 75" fill="none" xmlns="http://www.w3.org/2000/svg">
  <path d="M189.309 62.0629C189.035 60.9974 188.835 59.914 188.712 58.8208C188.573 57.6045 188.496 56.3821 188.482 55.1581C188.454 53.8365 188.445 52.3601 188.445 50.7254V25.7583C188.094 25.538 187.652 25.254 187.119 24.8954C186.586 24.5368 186.06 24.1982 185.525 23.8414C184.99 23.4846 184.513 23.1605 184.064 22.8492C183.614 22.538 183.291 22.3177 183.07 22.1884L173.918 26.2807C174.281 26.5669 174.659 26.8337 175.051 27.0799C175.575 27.4294 176.146 27.8081 176.734 28.2359C177.323 28.6637 177.922 29.0623 178.493 29.4574C179.065 29.8524 179.516 30.1637 179.819 30.384V52.3164C179.599 52.1441 179.148 51.814 178.466 51.3261C177.775 50.84 177.028 50.3176 176.21 49.7387C175.392 49.1598 174.59 48.61 173.825 48.0584C173.06 47.5069 172.463 47.0772 172.066 46.775V31.0448C172.066 29.9434 172.039 28.9513 172.002 28.072C171.966 27.3439 171.911 26.6667 171.845 26.0514C171.845 25.933 171.827 25.8129 171.809 25.6873C171.724 25.0382 171.588 24.3967 171.403 23.7686C171.236 23.2186 171.014 22.6868 170.74 22.1812H162.113C162.325 22.5931 162.492 23.0271 162.609 23.4755C162.647 23.595 162.677 23.7166 162.701 23.8396C162.821 24.3074 162.931 24.8299 163.042 25.427C163.188 26.2704 163.286 27.1212 163.336 27.9756C163.382 28.691 163.418 29.4628 163.428 30.2693C163.438 30.5278 163.438 30.7845 163.438 31.0502V46.6057H163.457V50.993C163.806 51.2587 164.35 51.6429 165.077 52.1489C165.804 52.655 166.569 53.1938 167.369 53.7727C168.169 54.3516 168.907 54.8832 169.615 55.3875C170.324 55.8917 170.832 56.2594 171.144 56.4797C170.877 56.609 170.413 56.8438 169.754 57.1678C169.095 57.4919 168.364 57.8559 167.562 58.2328C166.761 58.6096 166.006 58.9755 165.279 59.3523C164.553 59.7292 163.981 60.004 163.585 60.1788C164.027 60.7468 164.717 61.6351 165.637 62.8221C166.558 64.009 167.544 65.2541 168.56 66.5576C169.575 67.861 170.549 69.1062 171.482 70.3186C171.885 70.8519 172.254 71.3289 172.567 71.7421C172.99 72.2737 173.332 72.7142 173.599 73.0638C174.352 72.7142 175.503 72.1851 177.05 71.4763C178.597 70.7682 180.228 70.02 181.96 69.2263C183.691 68.4326 185.329 67.6771 186.891 66.9508C188.452 66.2244 189.643 65.6856 190.434 65.3361C189.978 64.2743 189.602 63.1802 189.309 62.0629V62.0629ZM179.596 66.2299C178.555 65.0163 177.484 63.7711 176.384 62.4944C175.279 61.2201 174.247 60.0259 173.299 58.9245C172.751 58.2819 172.285 57.7504 171.927 57.3189C171.659 57.0076 171.438 56.7491 171.274 56.5471C171.456 56.4743 171.668 56.3741 171.927 56.2449C172.249 56.0974 172.627 55.9063 173.069 55.686C173.86 55.291 174.698 54.8868 175.582 54.4645C176.466 54.0422 177.313 53.6581 178.104 53.2812C178.895 52.9044 179.476 52.6295 179.826 52.4548V53.5743C179.826 55.2546 179.872 56.7673 179.965 58.1363C180.058 59.5053 180.186 60.7795 180.36 61.9592C180.533 63.1388 180.756 64.3166 181.023 65.4653C181.289 66.614 181.622 67.8319 182.018 69.1062C181.437 68.3962 180.637 67.4405 179.596 66.2299Z" fill="white"/>
  <path d="M127.09 56.1715C126.906 55.6228 126.761 55.062 126.657 54.493C126.543 53.8584 126.468 53.2178 126.43 52.5743C126.383 51.8953 126.364 51.118 126.364 50.2241V17.0579C126.364 15.9565 126.337 14.9662 126.301 14.0851C126.264 13.2041 126.191 12.414 126.098 11.7077C126.019 11.0587 125.886 10.4174 125.7 9.79078C125.535 9.2401 125.313 8.70808 125.037 8.20337H116.418C116.632 8.61428 116.798 9.04784 116.915 9.49587C117.072 10.042 117.209 10.6901 117.348 11.4419C117.49 12.2858 117.588 13.1365 117.642 13.9905C117.708 14.9353 117.744 15.962 117.744 17.0634V50.2241C117.744 51.0688 117.762 51.8225 117.808 52.5106C117.848 53.1534 117.925 53.7934 118.038 54.4275C118.149 55.0155 118.286 55.5944 118.444 56.1441C118.596 56.7026 118.805 57.2438 119.07 57.7589H127.687C127.466 57.2364 127.263 56.703 127.09 56.1715Z" fill="white"/>
  <path d="M114.212 44.6765C113.688 43.7799 113.09 42.9276 112.426 42.1279C111.692 41.245 110.882 40.4281 110.004 39.6867C109.168 38.9703 108.296 38.2965 107.391 37.6679C106.774 37.7134 105.999 37.8062 105.07 37.9336C104.14 38.0611 103.21 38.1903 102.281 38.2977C101.351 38.4051 100.54 38.4798 99.8315 38.4907C99.1229 38.5016 98.6791 38.3979 98.5056 38.1266C98.2418 37.4059 98.0324 36.6666 97.8792 35.9148C97.6722 35.0119 97.5078 34.1332 97.386 33.2788C97.2544 32.5155 97.1987 31.7411 97.2198 30.9669C97.2381 30.2788 97.386 29.8109 97.6436 29.5433C98.7509 29.8911 99.8349 30.3089 100.889 30.794C102.169 31.3631 103.439 31.9699 104.701 32.6144C105.963 33.2479 107.122 33.8887 108.182 34.4967C109.241 35.1047 109.995 35.6436 110.437 36.0841L113.622 25.2453C112.754 24.9763 111.869 24.7647 110.972 24.6118C109.867 24.4225 108.688 24.2404 107.455 24.0584C106.222 23.8764 104.969 23.7362 103.707 23.627C102.445 23.5177 101.358 23.4449 100.42 23.3976C98.9318 24.0067 97.481 24.7021 96.0747 25.4801C94.6485 26.2626 93.268 27.1251 91.9398 28.0633C90.7722 28.8691 89.6951 29.798 88.7272 30.834C87.8615 31.7788 87.3465 32.6981 87.1712 33.5792C87.2985 34.3173 87.5452 35.0298 87.9017 35.6891C88.3445 36.5543 88.901 37.3569 89.5564 38.0756C90.3056 38.9029 91.125 39.6643 92.0056 40.3512C92.9942 41.1122 94.0635 41.7629 95.1944 42.2917C96.04 42.2844 96.8836 42.2077 97.7166 42.0624C98.6298 41.9058 99.5119 41.7766 100.332 41.6673C101.152 41.5581 101.879 41.4853 102.524 41.438C103.168 41.3906 103.59 41.4562 103.802 41.6309C103.985 42.2917 104.198 43.0982 104.465 44.0448C104.732 44.9914 104.982 45.9526 105.23 46.9174C105.479 47.8822 105.663 48.7979 105.791 49.6335C105.919 50.4691 105.921 51.0898 105.791 51.4776C105.221 51.2573 104.319 50.8623 103.103 50.2943C101.886 49.7263 100.595 49.0455 99.2124 48.27C97.8298 47.4945 96.4308 46.6808 95.0684 45.8288C93.8718 45.0916 92.7192 44.2856 91.6165 43.4149L86.1831 53.4546C87.2312 53.9496 88.3186 54.3576 89.434 54.6742C90.7965 55.0966 92.3069 55.5007 93.936 55.9048C95.5651 56.309 97.2235 56.6567 98.88 56.988C100.537 57.3193 102.029 57.5742 103.355 57.7489C104.815 57.2864 106.199 56.6117 107.462 55.7465C108.749 54.8721 109.948 53.8766 111.044 52.7737C112.026 51.7873 112.914 50.7116 113.695 49.5607C114.395 48.5067 114.864 47.6256 115.085 46.9192C114.942 46.1226 114.645 45.3611 114.212 44.6765V44.6765Z" fill="white"/>
  <path d="M155.9 32.7349C155.016 32.2668 154.236 31.6267 153.606 30.8526C153.031 30.1221 152.531 29.3353 152.116 28.5043C151.719 27.6869 151.286 26.9077 150.826 26.1541C150.371 25.4187 149.784 24.7723 149.097 24.2463C148.406 23.7129 147.495 23.4107 146.344 23.3179C145.727 23.3652 144.918 23.5855 143.922 23.9787C142.834 24.4192 141.773 24.925 140.746 25.4933C139.614 26.1177 138.454 26.8149 137.265 27.6141C136.111 28.3716 135.004 29.199 133.95 30.0917C132.983 30.8952 132.096 31.7895 131.3 32.7622C130.645 33.526 130.13 34.3993 129.779 35.3418V47.7661C131.326 47.859 132.586 48.1612 133.554 48.6945C134.457 49.1621 135.275 49.7774 135.974 50.515C136.612 51.1917 137.16 51.9473 137.605 52.7632C138.026 53.5468 138.49 54.3065 138.995 55.0387C139.462 55.7267 140.044 56.329 140.717 56.8191C141.38 57.3051 142.264 57.5891 143.369 57.682C143.939 57.6364 144.704 57.4253 145.652 57.0484C146.702 56.6296 147.73 56.1569 148.731 55.6322C149.903 55.0164 151.043 54.3426 152.147 53.6133C153.315 52.8415 154.411 52.0532 155.425 51.2358C156.388 50.4732 157.276 49.6198 158.075 48.6873C158.74 47.9528 159.259 47.099 159.604 46.1714V33.6105C158.062 33.5414 156.829 33.2392 155.9 32.7349ZM149.601 38.5439C149.555 39.5815 149.464 40.6628 149.334 41.7824C149.204 42.902 149.067 44.0324 148.938 45.152C148.808 46.2716 148.634 47.3256 148.441 48.2904C148.276 49.134 148.042 49.9627 147.741 50.768C147.475 51.4561 147.217 51.924 146.951 52.1897C146.226 52.0202 145.539 51.7184 144.925 51.2996C144.162 50.8118 143.452 50.2463 142.807 49.612C142.112 48.9427 141.477 48.2149 140.909 47.4366C140.368 46.7014 139.966 45.8742 139.722 44.9954C139.722 44.2436 139.758 43.3334 139.824 42.2794C139.89 41.2253 139.979 40.1313 140.091 39.0117C140.202 37.8922 140.33 36.7544 140.487 35.6075C140.644 34.4607 140.799 33.423 140.984 32.4691C141.129 31.6407 141.338 30.8246 141.608 30.0279C141.848 29.3398 142.105 28.8702 142.372 28.6044C143.144 28.8283 143.879 29.1625 144.554 29.5965C145.363 30.0894 146.119 30.6641 146.81 31.3113C147.51 31.9587 148.124 32.6929 148.636 33.4958C149.119 34.2213 149.468 35.0262 149.668 35.8733C149.666 36.6252 149.644 37.5153 149.601 38.5439V38.5439Z" fill="white"/>
  <path d="M173.265 15.9877C174.086 16.4243 174.935 16.8085 175.805 17.1382C177.166 17.6425 178.563 18.0412 179.986 18.3306C181.831 18.689 183.708 18.8568 185.587 18.8312C188.144 18.8312 190.188 18.2244 191.718 17.0108C193.247 15.8002 194.001 14.1108 194.001 11.9536C194.005 11.131 193.862 10.3143 193.579 9.54158C193.279 8.76058 192.788 8.06662 192.151 7.52273C191.488 6.95294 190.604 6.4942 189.499 6.13557C188.394 5.77695 187.023 5.61311 185.384 5.61311C182.696 5.61311 180.453 6.14468 178.691 7.22783C177.561 7.91206 176.543 8.76342 175.67 9.75275C175.339 9.55978 175.007 9.36682 174.686 9.17386C173.171 8.27818 171.61 7.4633 170.008 6.73267C168.365 5.98084 166.427 5.61311 164.164 5.61311C163.028 5.59767 161.898 5.77433 160.822 6.13557C159.89 6.45155 159.023 6.93394 158.265 7.55914C157.577 8.11978 157.031 8.83299 156.67 9.64171C156.312 10.4549 156.134 11.3352 156.148 12.2231C156.148 13.5447 156.378 14.6551 156.847 15.5544C157.297 16.4468 157.969 17.2086 158.8 17.7662C159.718 18.3789 160.741 18.8171 161.819 19.0587C163.111 19.359 164.434 19.5039 165.76 19.4902L165.899 19.1607C165.128 19.1667 164.358 19.0867 163.605 18.9222C162.994 18.7999 162.411 18.5666 161.885 18.2341C161.433 17.9355 161.067 17.5237 160.825 17.0399C160.573 16.5265 160.448 15.9603 160.46 15.3888C160.46 14.2419 160.825 13.4427 161.519 12.9749C162.213 12.507 163.13 12.2868 164.244 12.2868C165.261 12.2736 166.271 12.4413 167.229 12.7819C168.13 13.1208 169.004 13.5292 169.842 14.0034C170.699 14.4895 171.601 15.0028 172.54 15.5817L173.265 15.9877ZM187.939 12.0865C187.018 12.5294 186.007 12.7554 184.984 12.7473C182.82 12.7473 180.932 12.3742 179.323 11.6278C178.41 11.2054 177.518 10.7558 176.653 10.288C177.326 9.53434 178.086 8.86224 178.917 8.28549C180.573 7.12042 182.704 6.53607 185.31 6.53243C185.935 6.52053 186.56 6.58843 187.169 6.73449C187.615 6.84435 188.032 7.04793 188.392 7.33159C188.706 7.57177 188.948 7.89193 189.094 8.25819C189.22 8.61778 189.282 8.99676 189.276 9.37774C189.293 10.7467 188.842 11.646 187.939 12.0865Z" fill="white"/>
  <circle cx="37.4739" cy="37.4739" r="37.4739" fill="url(#paint0_radial)"/>
  <defs>
    <radialGradient id="paint0_radial" cx="0" cy="0" r="1" gradientUnits="userSpaceOnUse" gradientTransform="translate(37.4739 37.4739) rotate(90) scale(37.4739)">
      <stop offset="0.20442" stop-color="white" stop-opacity="0"/>
      <stop offset="0.314917" stop-color="#FFFE03"/>
      <stop offset="0.607735" stop-color="#00BF4F"/>
      <stop offset="1" stop-color="#03269A" stop-opacity="0"/>
    </radialGradient>
  </defs>
</svg>