<svg width="20" height="16" viewBox="0 0 20 16" fill="none" xmlns="http://www.w3.org/2000/svg">
<path fill-rule="evenodd" clip-rule="evenodd" d="M7.84889 10.7319L7.7805 10.6848L16.2797 3.55465C16.6453 3.24173 16.1876 3.08596 15.7006 3.37018L5.236 9.53289L0.711472 8.20879C-0.262457 7.93824 -0.278543 7.31103 0.924976 6.856L18.5347 0.507455C19.3419 0.165841 20.1184 0.678261 19.8142 1.83155L16.8135 15.0411C16.6014 15.9798 15.9916 16.193 15.1537 15.7667L10.5872 12.6193C9.51444 13.5941 8.5539 14.4664 8.39054 14.6129C8.37591 14.6257 8.36147 14.6384 8.34717 14.651C8.10867 14.8614 7.90749 15.0388 7.47803 15.0392V14.8971L7.84889 10.7319Z" fill="#5AE800"/>
</svg>
