<svg width="24" height="16" viewBox="0 0 24 16" fill="none" xmlns="http://www.w3.org/2000/svg">
<path d="M11.9926 0.271973C11.9926 0.271973 4.49158 0.271979 2.60893 0.729095C1.6009 0.992279 0.770861 1.76789 0.489204 2.72367C1.11457e-05 4.48286 0 8.12599 0 8.12599C0 8.12599 1.11457e-05 11.783 0.489204 13.5145C0.770861 14.4702 1.58607 15.232 2.60893 15.4952C4.5064 15.9661 11.9926 15.9662 11.9926 15.9662C11.9926 15.9662 19.5084 15.9662 21.391 15.509C22.4139 15.2458 23.2291 14.4979 23.4959 13.5283C23.9999 11.783 24 8.13985 24 8.13985C24 8.13985 24.0148 4.48286 23.4959 2.72367C23.2291 1.76789 22.4139 1.00615 21.391 0.756813C19.5084 0.271995 11.9926 0.271973 11.9926 0.271973ZM9.60587 4.76005L15.8469 8.12599L9.60587 11.4781V4.76005Z" fill="#5AE800"/>
</svg>
